<svg width="12" height="8" viewBox="0 0 12 8" fill="none" xmlns="http://www.w3.org/2000/svg">
<path d="M11.352 4.154L7.932 7.574L7.566 7.196C7.486 7.116 7.454 7.036 7.47 6.956C7.49 6.876 7.534 6.8 7.602 6.728L9.324 5.018C9.416 4.922 9.504 4.836 9.588 4.76C9.676 4.684 9.76 4.616 9.84 4.556C9.636 4.584 9.422 4.606 9.198 4.622C8.978 4.634 8.752 4.64 8.52 4.64H0.708V3.662H8.52C8.756 3.662 8.984 3.67 9.204 3.686C9.428 3.702 9.64 3.724 9.84 3.752C9.76 3.688 9.678 3.618 9.594 3.542C9.51 3.466 9.42 3.38 9.324 3.284L7.59 1.562C7.518 1.49 7.474 1.414 7.458 1.334C7.442 1.254 7.472 1.174 7.548 1.094L7.92 0.71L11.352 4.154Z" fill="white"/>
</svg>
