<svg width="20" height="20" viewBox="0 0 20 20" fill="none" xmlns="http://www.w3.org/2000/svg">
<path fill-rule="evenodd" clip-rule="evenodd" d="M18 6H2V17H18V6ZM1 5V18H19V5H1Z" fill="#B3B6BE"/>
<path fill-rule="evenodd" clip-rule="evenodd" d="M18 5H2V4H18V5ZM1 6V3H19V6H1Z" fill="#B3B6BE"/>
<rect x="3" y="7" width="2" height="2" fill="#B3B6BE"/>
<rect x="7" y="7" width="2" height="2" fill="#B3B6BE"/>
<rect x="11" y="7" width="2" height="2" fill="#B3B6BE"/>
<rect x="15" y="7" width="2" height="2" fill="#B3B6BE"/>
<rect x="3" y="10" width="2" height="2" fill="#B3B6BE"/>
<rect x="7" y="10" width="2" height="2" fill="#B3B6BE"/>
<rect x="11" y="10" width="2" height="2" fill="#B3B6BE"/>
<rect x="15" y="10" width="2" height="2" fill="#B3B6BE"/>
<rect x="3" y="13" width="2" height="2" fill="#B3B6BE"/>
<rect x="7" y="13" width="2" height="2" fill="#B3B6BE"/>
<rect x="11" y="13" width="2" height="2" fill="#B3B6BE"/>
<rect x="3" y="1" width="2" height="2" fill="#B3B6BE"/>
<rect x="15" y="1" width="2" height="2" fill="#B3B6BE"/>
</svg>
