<svg width="73" height="73" viewBox="0 0 73 73" fill="none" xmlns="http://www.w3.org/2000/svg">
<g clip-path="url(#clip0)">
<path d="M51.0202 39.8397C51.0224 37.5896 48.7745 33.0915 48.7767 30.8414C48.7773 28.5919 49.9023 27.4668 49.9023 27.4668L43.1498 34.2194C43.1498 34.2194 42.0236 35.3456 42.023 37.5951C42.0208 39.8453 44.2687 44.3433 44.2676 46.5923C44.2659 48.843 43.1409 49.968 43.1409 49.968L49.8935 43.2154C49.8935 43.2154 51.0197 42.0893 51.0202 39.8397Z" fill="#CE9709"/>
<path fill-rule="evenodd" clip-rule="evenodd" d="M62.2766 28.5833C60.0265 28.5855 55.5284 26.3376 53.2783 26.3398C51.0288 26.3404 49.9026 27.4666 49.9026 27.4666L43.15 34.2192C43.15 34.2192 44.275 33.0941 46.5257 33.0924C48.7747 33.0913 53.2739 35.3381 55.5229 35.337C57.7725 35.3365 58.8986 34.2103 58.8986 34.2103L63.4011 29.7078C63.4011 29.7078 64.5262 28.5827 62.2766 28.5833ZM37.5208 42.0974C35.2712 42.0979 34.145 43.2241 34.145 43.2241L29.6426 47.7266C29.6426 47.7266 28.5175 48.8516 30.7671 48.8511C33.0172 48.8488 37.5152 51.0968 39.7654 51.0945C42.0149 51.094 43.1411 49.9678 43.1411 49.9678L49.8937 43.2152C49.8937 43.2152 48.7686 44.3403 46.518 44.3419C44.2689 44.343 39.7709 42.0951 37.5208 42.0974Z" fill="#FFC839"/>
<path d="M30.7741 35.3504C30.7763 33.1003 28.5284 28.6023 28.5295 26.3533C28.5312 24.1026 29.6562 22.9775 29.6562 22.9775L22.9037 29.7301C22.9037 29.7301 21.7775 30.8563 21.7769 33.1059C21.7747 35.356 24.0226 39.854 24.0204 42.1041C24.0198 44.3537 22.8937 45.4799 22.8937 45.4799L29.6474 38.7262C29.6474 38.7262 30.7736 37.6 30.7741 35.3504Z" fill="#29EDB2"/>
<path d="M30.7741 35.3504C30.7763 33.1003 28.5284 28.6023 28.5295 26.3533C28.5312 24.1026 29.6562 22.9775 29.6562 22.9775L22.9037 29.7301C22.9037 29.7301 21.7775 30.8563 21.7769 33.1059C21.7747 35.356 24.0226 39.854 24.0204 42.1041C24.0198 44.3537 22.8937 45.4799 22.8937 45.4799L29.6474 38.7262C29.6474 38.7262 30.7736 37.6 30.7741 35.3504Z" fill="#47A4FB"/>
<path fill-rule="evenodd" clip-rule="evenodd" d="M42.0305 24.095C39.7804 24.0972 35.2824 21.8493 33.0322 21.8516C30.7827 21.8521 29.6565 22.9783 29.6565 22.9783L22.9039 29.7309C22.9039 29.7309 24.029 28.6058 26.2796 28.6041C28.5286 28.603 33.0267 30.8509 35.2768 30.8487C37.5264 30.8482 38.6525 29.722 38.6525 29.722L43.155 25.2195C43.155 25.2195 44.2801 24.0945 42.0305 24.095ZM17.2753 37.6085C15.0246 37.6102 13.8995 38.7353 13.8995 38.7353L9.39704 43.2377C9.39704 43.2377 8.27199 44.3628 10.5216 44.3622C12.7717 44.36 17.2697 46.6079 19.5187 46.6068C21.7694 46.6051 22.8945 45.4801 22.8945 45.4801L29.6476 38.7269C29.6476 38.7269 28.5225 39.852 26.2719 39.8537C24.0229 39.8548 19.5243 37.6074 17.2753 37.6085Z" fill="#41F4FF"/>
<path fill-rule="evenodd" clip-rule="evenodd" d="M35.2614 57.8476C34.0193 56.6055 32.0054 56.6066 30.7617 57.8504C29.5191 59.093 29.518 61.1068 30.76 62.3489C32.0016 63.5904 34.016 63.5899 35.2586 62.3473C36.5024 61.1035 36.5029 59.0891 35.2614 57.8476ZM36.4125 11.725C35.171 10.4835 33.1566 10.484 31.9128 11.7278C30.6691 12.9715 30.6685 14.986 31.9101 16.2275C33.1521 17.4696 35.166 17.4685 36.4097 16.2247C37.6535 14.981 37.6546 12.9671 36.4125 11.725ZM58.4933 49.5454L58.495 45.8377C58.4955 44.8145 57.6664 43.9853 56.6426 43.9853C55.6182 43.9869 54.7885 44.8167 54.7879 45.8399L54.7857 49.547C54.7851 50.5703 55.6149 51.4 56.6387 51.4C57.6608 51.4006 58.4928 50.5686 58.4933 49.5454Z" fill="#FFC839"/>
<path fill-rule="evenodd" clip-rule="evenodd" d="M48.7857 12.8433C47.5442 11.6018 45.5297 11.6023 44.286 12.8461C43.0434 14.0887 43.0417 16.1042 44.2832 17.3458C45.5253 18.5878 47.5403 18.5856 48.7829 17.343C50.0266 16.0992 50.0278 14.0854 48.7857 12.8433ZM49.8869 54.4645C48.6454 53.223 46.6309 53.2235 45.3872 54.4673C44.1446 55.7099 44.1429 57.7254 45.3844 58.967C46.6259 60.2085 48.6415 60.2068 49.8841 58.9642C51.1278 57.7204 51.1284 55.706 49.8869 54.4645ZM16.9009 24.4509C16.902 23.4192 16.0661 22.5833 15.0338 22.5838C14.0021 22.5849 13.1651 23.422 13.1651 24.4525L13.1623 28.1894C13.1629 29.2206 13.9983 30.0559 15.0288 30.0559C16.0616 30.056 16.8975 29.22 16.8987 28.1861L16.9009 24.4509ZM24.7991 52.6113L21.0644 52.6118C20.0316 52.6141 19.1957 53.45 19.1946 54.4817C19.1957 55.5134 20.0311 56.3487 21.0616 56.3487L24.7991 56.3465C25.8308 56.3454 26.6667 55.5095 26.6667 54.4789C26.6678 53.445 25.8324 52.6096 24.7991 52.6113Z" fill="#29EDB2"/>
<path fill-rule="evenodd" clip-rule="evenodd" d="M48.7857 12.8433C47.5442 11.6018 45.5297 11.6023 44.286 12.8461C43.0434 14.0887 43.0417 16.1042 44.2832 17.3458C45.5253 18.5878 47.5403 18.5856 48.7829 17.343C50.0266 16.0992 50.0278 14.0854 48.7857 12.8433ZM49.8869 54.4645C48.6454 53.223 46.6309 53.2235 45.3872 54.4673C44.1446 55.7099 44.1429 57.7254 45.3844 58.967C46.6259 60.2085 48.6415 60.2068 49.8841 58.9642C51.1278 57.7204 51.1284 55.706 49.8869 54.4645ZM16.9009 24.4509C16.902 23.4192 16.0661 22.5833 15.0338 22.5838C14.0021 22.5849 13.1651 23.422 13.1651 24.4525L13.1623 28.1894C13.1629 29.2206 13.9983 30.0559 15.0288 30.0559C16.0616 30.056 16.8975 29.22 16.8987 28.1861L16.9009 24.4509ZM24.7991 52.6113L21.0644 52.6118C20.0316 52.6141 19.1957 53.45 19.1946 54.4817C19.1957 55.5134 20.0311 56.3487 21.0616 56.3487L24.7991 56.3465C25.8308 56.3454 26.6667 55.5095 26.6667 54.4789C26.6678 53.445 25.8324 52.6096 24.7991 52.6113Z" fill="url(#paint0_linear)"/>
<path fill-rule="evenodd" clip-rule="evenodd" d="M48.7857 12.8433C47.5442 11.6018 45.5297 11.6023 44.286 12.8461C43.0434 14.0887 43.0417 16.1042 44.2832 17.3458C45.5253 18.5878 47.5403 18.5856 48.7829 17.343C50.0266 16.0992 50.0278 14.0854 48.7857 12.8433ZM49.8869 54.4645C48.6454 53.223 46.6309 53.2235 45.3872 54.4673C44.1446 55.7099 44.1429 57.7254 45.3844 58.967C46.6259 60.2085 48.6415 60.2068 49.8841 58.9642C51.1278 57.7204 51.1284 55.706 49.8869 54.4645ZM16.9009 24.4509C16.902 23.4192 16.0661 22.5833 15.0338 22.5838C14.0021 22.5849 13.1651 23.422 13.1651 24.4525L13.1623 28.1894C13.1629 29.2206 13.9983 30.0559 15.0288 30.0559C16.0616 30.056 16.8975 29.22 16.8987 28.1861L16.9009 24.4509ZM24.7991 52.6113L21.0644 52.6118C20.0316 52.6141 19.1957 53.45 19.1946 54.4817C19.1957 55.5134 20.0311 56.3487 21.0616 56.3487L24.7991 56.3465C25.8308 56.3454 26.6667 55.5095 26.6667 54.4789C26.6678 53.445 25.8324 52.6096 24.7991 52.6113Z" fill="#41F4FF"/>
</g>
<defs>
<linearGradient id="paint0_linear" x1="59.6828" y1="-19.761" x2="95.5788" y2="34.846" gradientUnits="userSpaceOnUse">
<stop stop-color="#FF372F"/>
<stop offset="1" stop-color="#883186"/>
</linearGradient>
<clipPath id="clip0">
<rect width="50.9142" height="50.9142" fill="white" transform="translate(36.3936 0.451172) rotate(45)"/>
</clipPath>
</defs>
</svg>
