<svg width="12" height="8" viewBox="0 0 12 8" fill="none" xmlns="http://www.w3.org/2000/svg">
<path d="M11.352 4.20576L7.932 7.62576L7.566 7.24776C7.486 7.16776 7.454 7.08776 7.47 7.00776C7.49 6.92776 7.534 6.85176 7.602 6.77976L9.324 5.06976C9.42 4.97376 9.51 4.88776 9.594 4.81176C9.678 4.73576 9.76 4.66576 9.84 4.60176C9.64 4.62976 9.428 4.65176 9.204 4.66776C8.984 4.68376 8.756 4.69176 8.52 4.69176H0.708V3.71376H8.52C8.756 3.71376 8.986 3.72176 9.21 3.73776C9.434 3.75376 9.646 3.77576 9.846 3.80376C9.766 3.73976 9.682 3.66976 9.594 3.59376C9.51 3.51776 9.42 3.43176 9.324 3.33576L7.59 1.61376C7.518 1.54176 7.474 1.46576 7.458 1.38576C7.442 1.30576 7.472 1.22576 7.548 1.14576L7.92 0.761758L11.352 4.20576Z" fill="#797C88"/>
</svg>
