<svg width="127" height="31" viewBox="0 0 127 31" fill="none" xmlns="http://www.w3.org/2000/svg">
<path d="M0.849609 8.17188C0.849609 4.40064 0.849609 2.51502 2.02118 1.34345C3.19276 0.171875 5.07837 0.171875 8.84961 0.171875H118.145C121.917 0.171875 123.802 0.171875 124.974 1.34345C126.145 2.51502 126.145 4.40064 126.145 8.17187V30.8083H8.84961C5.07837 30.8083 3.19276 30.8083 2.02118 29.6367C0.849609 28.4651 0.849609 26.5795 0.849609 22.8083V8.17188Z" fill="#29EDB2"/>
<path d="M0.849609 8.17188C0.849609 4.40064 0.849609 2.51502 2.02118 1.34345C3.19276 0.171875 5.07837 0.171875 8.84961 0.171875H118.145C121.917 0.171875 123.802 0.171875 124.974 1.34345C126.145 2.51502 126.145 4.40064 126.145 8.17187V30.8083H8.84961C5.07837 30.8083 3.19276 30.8083 2.02118 29.6367C0.849609 28.4651 0.849609 26.5795 0.849609 22.8083V8.17188Z" fill="url(#paint0_linear)"/>
<path d="M0.849609 8.17188C0.849609 4.40064 0.849609 2.51502 2.02118 1.34345C3.19276 0.171875 5.07837 0.171875 8.84961 0.171875H118.145C121.917 0.171875 123.802 0.171875 124.974 1.34345C126.145 2.51502 126.145 4.40064 126.145 8.17187V30.8083H8.84961C5.07837 30.8083 3.19276 30.8083 2.02118 29.6367C0.849609 28.4651 0.849609 26.5795 0.849609 22.8083V8.17188Z" fill="url(#paint1_radial)"/>
<defs>
<linearGradient id="paint0_linear" x1="6.20413" y1="-18.3376" x2="101.963" y2="62.6294" gradientUnits="userSpaceOnUse">
<stop stop-color="#FF372F"/>
<stop offset="1" stop-color="#883186"/>
</linearGradient>
<radialGradient id="paint1_radial" cx="0" cy="0" r="1" gradientUnits="userSpaceOnUse" gradientTransform="translate(-3.97252 0.171885) rotate(14.3757) scale(142.64 110.155)">
<stop stop-color="#3D9CC5"/>
<stop offset="1" stop-color="#192A68"/>
</radialGradient>
</defs>
</svg>
