<svg width="166" height="53" viewBox="0 0 166 53" fill="none" xmlns="http://www.w3.org/2000/svg">
<path d="M0 8C0 4.22876 0 2.34315 1.17157 1.17157C2.34315 0 4.22876 0 8 0H158C161.771 0 163.657 0 164.828 1.17157C166 2.34315 166 4.22876 166 8V48H8C4.22877 48 2.34315 48 1.17157 46.8284C0 45.6569 0 43.7712 0 40V8Z" fill="#29EDB2"/>
<path d="M0 8C0 4.22876 0 2.34315 1.17157 1.17157C2.34315 0 4.22876 0 8 0H158C161.771 0 163.657 0 164.828 1.17157C166 2.34315 166 4.22876 166 8V48H8C4.22877 48 2.34315 48 1.17157 46.8284C0 45.6569 0 43.7712 0 40V8Z" fill="url(#paint0_linear)"/>
<path d="M0 8C0 4.22876 0 2.34315 1.17157 1.17157C2.34315 0 4.22876 0 8 0H158C161.771 0 163.657 0 164.828 1.17157C166 2.34315 166 4.22876 166 8V48H8C4.22877 48 2.34315 48 1.17157 46.8284C0 45.6569 0 43.7712 0 40V8Z" fill="url(#paint1_radial)"/>
<path d="M161 53L166 48H161V53Z" fill="#29EDB2"/>
<path d="M161 53L166 48H161V53Z" fill="url(#paint2_linear)"/>
<path d="M161 53L166 48H161V53Z" fill="url(#paint3_radial)"/>
<defs>
<linearGradient id="paint0_linear" x1="7.09402" y1="-29" x2="151.064" y2="73.9363" gradientUnits="userSpaceOnUse">
<stop stop-color="#FF372F"/>
<stop offset="1" stop-color="#883186"/>
</linearGradient>
<radialGradient id="paint1_radial" cx="0" cy="0" r="1" gradientUnits="userSpaceOnUse" gradientTransform="translate(-6.38867) rotate(16.8621) scale(191.286 170.505)">
<stop stop-color="#3D9CC5"/>
<stop offset="1" stop-color="#192A68"/>
</radialGradient>
<linearGradient id="paint2_linear" x1="161.214" y1="44.9792" x2="167.498" y2="46.2785" gradientUnits="userSpaceOnUse">
<stop stop-color="#FF372F"/>
<stop offset="1" stop-color="#883186"/>
</linearGradient>
<radialGradient id="paint3_radial" cx="0" cy="0" r="1" gradientUnits="userSpaceOnUse" gradientTransform="translate(160.808 48) rotate(46.3487) scale(7.98808 12.8106)">
<stop stop-color="#3D9CC5"/>
<stop offset="1" stop-color="#192A68"/>
</radialGradient>
</defs>
</svg>
