<svg width="320" height="624" viewBox="0 0 320 624" fill="none" xmlns="http://www.w3.org/2000/svg">
<g filter="url(#filter0_d)">
<path d="M12 93.3175C12 70.5462 19.9873 48.0892 40.4431 38.0846C62.6665 27.2155 99.9853 16 159.368 16C235.041 16 275.43 46.1819 294.239 66.8956C304.67 78.3836 308 94.0072 308 109.524V497.089C308 525.285 296.141 552.612 270.05 563.301C246.612 572.903 211.615 582 163.137 582C126.361 582 96.5391 578.859 73.4074 574.828C34.7441 568.089 12 532.775 12 493.529V93.3175Z" fill="url(#paint0_linear)"/>
</g>
<defs>
<filter id="filter0_d" x="-18" y="-2" width="356" height="626" filterUnits="userSpaceOnUse" color-interpolation-filters="sRGB">
<feFlood flood-opacity="0" result="BackgroundImageFix"/>
<feColorMatrix in="SourceAlpha" type="matrix" values="0 0 0 0 0 0 0 0 0 0 0 0 0 0 0 0 0 0 127 0"/>
<feOffset dy="12"/>
<feGaussianBlur stdDeviation="15"/>
<feColorMatrix type="matrix" values="0 0 0 0 0 0 0 0 0 0 0 0 0 0 0 0 0 0 0.1 0"/>
<feBlend mode="normal" in2="BackgroundImageFix" result="effect1_dropShadow"/>
<feBlend mode="normal" in="SourceGraphic" in2="effect1_dropShadow" result="shape"/>
</filter>
<linearGradient id="paint0_linear" x1="67.8921" y1="623.609" x2="415.979" y2="540.19" gradientUnits="userSpaceOnUse">
<stop stop-color="#FFD6BF"/>
<stop offset="0.614583" stop-color="#FFD0C6"/>
<stop offset="1" stop-color="#FFDED7"/>
</linearGradient>
</defs>
</svg>
