<svg width="788" height="450" viewBox="0 0 788 450" fill="none" xmlns="http://www.w3.org/2000/svg">
<g filter="url(#filter0_d)">
<path d="M31.5425 169.773C24.6797 99.9546 65.9037 38.1332 135.603 30.1544C193.46 23.5312 276.938 18 394.393 18C521.093 18 608.859 27.9657 667.657 39.2691C733.036 51.8375 765.822 113.699 756.249 179.583L738.505 301.694C731.395 350.623 698.521 389.806 649.47 396.021C600.16 402.269 522.599 408 403.969 408C295.224 408 216.203 405.111 161.024 401.742C96.9895 397.832 49.0046 347.422 42.7288 283.576L31.5425 169.773Z" fill="url(#paint0_linear)"/>
</g>
<defs>
<filter id="filter0_d" x="0.800659" y="0" width="787.085" height="450" filterUnits="userSpaceOnUse" color-interpolation-filters="sRGB">
<feFlood flood-opacity="0" result="BackgroundImageFix"/>
<feColorMatrix in="SourceAlpha" type="matrix" values="0 0 0 0 0 0 0 0 0 0 0 0 0 0 0 0 0 0 127 0"/>
<feOffset dy="12"/>
<feGaussianBlur stdDeviation="15"/>
<feColorMatrix type="matrix" values="0 0 0 0 0 0 0 0 0 0 0 0 0 0 0 0 0 0 0.1 0"/>
<feBlend mode="normal" in2="BackgroundImageFix" result="effect1_dropShadow"/>
<feBlend mode="normal" in="SourceGraphic" in2="effect1_dropShadow" result="shape"/>
</filter>
<linearGradient id="paint0_linear" x1="161.996" y1="436.253" x2="680.351" y2="-28.5385" gradientUnits="userSpaceOnUse">
<stop stop-color="#FFD6BF"/>
<stop offset="0.614583" stop-color="#FFD0C6"/>
<stop offset="1" stop-color="#FFDED7"/>
</linearGradient>
</defs>
</svg>
