<svg width="20" height="20" viewBox="0 0 20 20" fill="none" xmlns="http://www.w3.org/2000/svg">
<path d="M16.1556 11.6761C16.1556 14.4358 13.9258 16.6662 11.1741 16.6662C8.42274 16.6662 6.19238 14.4358 6.19238 11.6761C6.19238 8.92414 8.42274 6.69434 11.1741 6.69434C13.9255 6.69434 16.1556 8.92414 16.1556 11.6761Z" stroke="#2C3044" stroke-miterlimit="10" stroke-linejoin="round"/>
<path d="M9.71026 8.96428C10.1453 8.72845 10.6441 8.59473 11.1735 8.59473C12.875 8.59473 14.2545 9.97528 14.2545 11.6766C14.2545 13.3839 12.8748 14.7664 11.1735 14.7664C9.47222 14.7664 8.09277 13.3842 8.09277 11.6766C8.09277 11.2135 8.19487 10.7743 8.37771 10.3803" stroke="#2C3044" stroke-miterlimit="10" stroke-linecap="round" stroke-linejoin="round"/>
<path d="M2.97363 3.89355H4.52703" stroke="#2C3044" stroke-miterlimit="10" stroke-linecap="round" stroke-linejoin="round"/>
<path d="M5.93104 15.3066H2.21221C1.75443 15.3066 1.37988 14.9318 1.37988 14.4743V6.37766C1.37988 5.91988 1.75443 5.54533 2.21221 5.54533H6.67181L8.85223 3.33301H13.6775L15.8044 5.54533H17.7886C18.2459 5.54533 18.621 5.91988 18.621 6.37766V14.4743C18.621 14.9318 18.2459 15.3066 17.7886 15.3066H16.3928" stroke="#2C3044" stroke-miterlimit="10" stroke-linejoin="round"/>
<path d="M4.70007 8.47435C4.43677 8.47435 4.22266 8.26024 4.22266 7.99718C4.22266 7.73365 4.43677 7.51953 4.70007 7.51953C4.96313 7.51953 5.17701 7.73388 5.17701 7.99718C5.17701 8.26024 4.96289 8.47435 4.70007 8.47435Z" fill="#2C3044"/>
</svg>
