<svg width="15" height="15" viewBox="0 0 15 15" fill="none" xmlns="http://www.w3.org/2000/svg">
<path d="M7.13561 14.75C3.22253 14.75 0 11.6452 0 7.75C0 3.91129 3.22253 0.75 7.13561 0.75C11.1062 0.75 14.2712 3.91129 14.2712 7.75C14.2712 7.97581 14.0986 8.14516 13.8684 8.14516C13.6382 8.14516 13.4656 7.97581 13.4656 7.75C13.4656 4.30645 10.6459 1.54032 7.13561 1.54032C3.62535 1.54032 0.805634 4.30645 0.805634 7.75C0.805634 11.1935 3.62535 13.9597 7.13561 13.9597C9.37988 13.9597 11.4515 12.7742 12.6024 10.9113C12.7175 10.7419 12.9477 10.629 13.1779 10.7419C13.3505 10.8548 13.408 11.0806 13.3505 11.3065C12.027 13.4516 9.6676 14.75 7.13561 14.75Z" fill="white"/>
</svg>
