<svg width="20" height="21" viewBox="0 0 20 21" fill="none" xmlns="http://www.w3.org/2000/svg">
<path fill-rule="evenodd" clip-rule="evenodd" d="M14.2307 15.1651C14.4431 15.3775 14.7875 15.3775 15 15.1651C15.2124 14.9527 15.2124 14.6083 15 14.3958L10.7692 10.165L15 5.93423C15.2124 5.72181 15.2124 5.37742 15 5.165C14.7875 4.95258 14.4431 4.95258 14.2307 5.165L9.99992 9.39581L5.76919 5.16508C5.55677 4.95266 5.21238 4.95266 4.99996 5.16508C4.78754 5.3775 4.78754 5.72189 4.99996 5.93431L9.23069 10.165L4.99996 14.3958C4.78754 14.6082 4.78754 14.9526 4.99996 15.165C5.21238 15.3774 5.55677 15.3774 5.76919 15.165L9.99992 10.9343L14.2307 15.1651Z" fill="#B3B6BE"/>
</svg>
