<svg width="24" height="25" viewBox="0 0 24 25" fill="none" xmlns="http://www.w3.org/2000/svg">
<path fill-rule="evenodd" clip-rule="evenodd" d="M17.0769 18.25C17.3318 18.5049 17.745 18.505 17.9999 18.2501C18.2548 17.9951 18.2548 17.5819 17.9999 17.327L12.923 12.25L18 7.17303C18.2549 6.91813 18.2549 6.50485 18 6.24995C17.7451 5.99505 17.3318 5.99505 17.0769 6.24995L11.9999 11.3269L6.92303 6.25005C6.66813 5.99515 6.25485 5.99515 5.99995 6.25005C5.74505 6.50495 5.74505 6.91823 5.99995 7.17313L11.0768 12.25L5.99995 17.3269C5.74505 17.5818 5.74505 17.9951 5.99995 18.25C6.25485 18.5049 6.66813 18.5049 6.92303 18.25L11.9999 13.1731L17.0769 18.25Z" fill="#2C689B"/>
</svg>
