<svg width="20" height="20" viewBox="0 0 20 20" fill="none" xmlns="http://www.w3.org/2000/svg">
<path d="M4.66682 8.22778L4.66602 8.22751V8.22805V9.64861V9.64915L4.66682 9.64888L6.52924 10.4056L8.27783 9.69511L6.41542 8.9384L8.80112 7.96896V6.54785L4.66682 8.22778Z" fill="#D2FCFF"/>
<path d="M4.66602 11.581V11.5817V13.0021V13.0027L4.66682 13.0024L6.53193 13.7603L8.28066 13.0497L6.41542 12.2919L8.80112 11.3225V9.90137L4.66682 11.5813L4.66602 11.581Z" fill="#D2FCFF"/>
<path d="M4.66602 14.9375V14.9381V16.3586V16.3591L4.66682 16.3588L8.80112 18.0388V16.6178L6.41542 15.6484L8.80112 14.6789V13.2578L4.66682 14.9377L4.66602 14.9375Z" fill="#D2FCFF"/>
<path d="M10.994 4.41151L10.9932 4.4111V4.41177V5.83221V5.83288L10.994 5.83261L12.8563 6.58932L14.605 5.87884L12.7426 5.12199L15.1283 4.15255V2.73145L10.994 4.41151Z" fill="#D2FCFF"/>
<path d="M10.9932 7.76462V7.76516V9.18559V9.18626L10.994 9.18599L12.8591 9.94378L14.6077 9.23329L12.7426 8.47537L15.1283 7.50606V6.08496L10.994 7.76489L10.9932 7.76462Z" fill="#D2FCFF"/>
<path d="M10.9932 11.1211V11.1216V12.5422V12.5427L10.994 12.5424L15.1283 14.2224V12.8013L12.7426 11.8318L15.1283 10.8625V9.44141L10.994 11.1213L10.9932 11.1211Z" fill="#D2FCFF"/>
<path fill-rule="evenodd" clip-rule="evenodd" d="M5.20197 3.35722C4.7585 2.91375 4.4685 2.40726 4.3665 1.96191C4.26451 2.40726 3.97464 2.91375 3.53104 3.35722C3.08758 3.80068 2.58109 4.09068 2.13574 4.19268C2.58109 4.29467 3.08758 4.58454 3.53104 5.02814C3.97451 5.4716 4.26451 5.97809 4.3665 6.42344C4.4685 5.97809 4.75837 5.4716 5.20197 5.02814C5.64556 4.58467 6.15192 4.29467 6.59727 4.19268C6.15206 4.09068 5.64556 3.80068 5.20197 3.35722Z" fill="#D2FCFF"/>
<path fill-rule="evenodd" clip-rule="evenodd" d="M12.1871 16.2007C11.9882 16.0019 11.8583 15.7749 11.8126 15.5752C11.7669 15.7749 11.6369 16.0019 11.4381 16.2007C11.2392 16.3996 11.0122 16.5296 10.8125 16.5753C11.0122 16.621 11.2392 16.7509 11.4381 16.9498C11.6369 17.1487 11.7669 17.3757 11.8126 17.5754C11.8583 17.3757 11.9882 17.1487 12.1871 16.9498C12.386 16.7509 12.613 16.621 12.8127 16.5753C12.613 16.5294 12.386 16.3995 12.1871 16.2007Z" fill="#D2FCFF"/>
<path fill-rule="evenodd" clip-rule="evenodd" d="M1.79738 14.778C1.53734 14.5179 1.36735 14.2211 1.30768 13.96C1.24788 14.2211 1.07802 14.5179 0.817991 14.778C0.557959 15.038 0.261107 15.208 0 15.2676C0.261107 15.3274 0.557959 15.4973 0.817991 15.7573C1.07802 16.0174 1.24802 16.3142 1.30768 16.5753C1.36748 16.3142 1.53734 16.0174 1.79738 15.7573C2.05741 15.4973 2.35426 15.3273 2.61537 15.2676C2.35426 15.208 2.05741 15.038 1.79738 14.778Z" fill="#D2FCFF"/>
<path fill-rule="evenodd" clip-rule="evenodd" d="M18.8936 5.92696C18.5418 5.57514 18.3118 5.17361 18.2311 4.82031C18.1502 5.17361 17.9202 5.57514 17.5686 5.92696C17.2167 6.27877 16.8152 6.5087 16.4619 6.58947C16.8152 6.67037 17.2167 6.9003 17.5686 7.25198C17.9204 7.60379 18.1503 8.00533 18.2311 8.35862C18.312 8.00533 18.5419 7.60379 18.8936 7.25198C19.2454 6.90016 19.6469 6.67023 20.0002 6.58947C19.6471 6.5087 19.2454 6.27877 18.8936 5.92696Z" fill="#D2FCFF"/>
</svg>
