<svg width="126" height="31" viewBox="0 0 126 31" fill="none" xmlns="http://www.w3.org/2000/svg">
<path d="M0.584961 8.17286C0.584961 4.40162 0.584961 2.516 1.75653 1.34442C2.92811 0.172852 4.81372 0.172852 8.58496 0.172852H117.881C121.652 0.172852 123.538 0.172852 124.709 1.34442C125.881 2.516 125.881 4.40162 125.881 8.17285V30.8092H8.58496C4.81372 30.8092 2.92811 30.8092 1.75653 29.6377C0.584961 28.4661 0.584961 26.5805 0.584961 22.8092V8.17286Z" fill="#29EDB2"/>
<path d="M0.584961 8.17286C0.584961 4.40162 0.584961 2.516 1.75653 1.34442C2.92811 0.172852 4.81372 0.172852 8.58496 0.172852H117.881C121.652 0.172852 123.538 0.172852 124.709 1.34442C125.881 2.516 125.881 4.40162 125.881 8.17285V30.8092H8.58496C4.81372 30.8092 2.92811 30.8092 1.75653 29.6377C0.584961 28.4661 0.584961 26.5805 0.584961 22.8092V8.17286Z" fill="url(#paint0_linear)"/>
<path d="M0.584961 8.17286C0.584961 4.40162 0.584961 2.516 1.75653 1.34442C2.92811 0.172852 4.81372 0.172852 8.58496 0.172852H117.881C121.652 0.172852 123.538 0.172852 124.709 1.34442C125.881 2.516 125.881 4.40162 125.881 8.17285V30.8092H8.58496C4.81372 30.8092 2.92811 30.8092 1.75653 29.6377C0.584961 28.4661 0.584961 26.5805 0.584961 22.8092V8.17286Z" fill="url(#paint1_radial)"/>
<defs>
<linearGradient id="paint0_linear" x1="5.93948" y1="-18.3366" x2="101.699" y2="62.6304" gradientUnits="userSpaceOnUse">
<stop stop-color="#FF372F"/>
<stop offset="1" stop-color="#883186"/>
</linearGradient>
<radialGradient id="paint1_radial" cx="0" cy="0" r="1" gradientUnits="userSpaceOnUse" gradientTransform="translate(-4.23717 0.172862) rotate(14.3757) scale(142.64 110.155)">
<stop stop-color="#3D9CC5"/>
<stop offset="1" stop-color="#192A68"/>
</radialGradient>
</defs>
</svg>
