<svg width="16" height="14" viewBox="0 0 16 14" fill="none" xmlns="http://www.w3.org/2000/svg">
<path d="M7.13561 14C3.22253 14 0 10.8952 0 7C0 3.16129 3.22253 0 7.13561 0C11.1062 0 14.2712 3.16129 14.2712 7C14.2712 7.22581 14.0986 7.39516 13.8684 7.39516C13.6382 7.39516 13.4656 7.22581 13.4656 7C13.4656 3.55645 10.6459 0.790323 7.13561 0.790323C3.62535 0.790323 0.805634 3.55645 0.805634 7C0.805634 10.4435 3.62535 13.2097 7.13561 13.2097C9.37988 13.2097 11.4515 12.0242 12.6024 10.1613C12.7175 9.99194 12.9477 9.87903 13.1779 9.99194C13.3505 10.1048 13.408 10.3306 13.3505 10.5565C12.027 12.7016 9.6676 14 7.13561 14Z" fill="#2C3044"/>
<path d="M13.8683 7.39533C13.8107 7.39533 13.7532 7.39533 13.6381 7.33888L11.1061 5.87114C10.9335 5.75823 10.8759 5.53243 10.991 5.30662C11.1061 5.13726 11.3363 5.08081 11.5665 5.13726L13.8107 6.43565L15.2494 4.40339C15.3645 4.23404 15.6522 4.17759 15.8248 4.29049C15.9975 4.40339 16.055 4.68565 15.9399 4.85501L14.2711 7.16952C14.156 7.33888 14.0409 7.39533 13.8683 7.39533Z" fill="#2C3044"/>
</svg>
