<svg width="69" height="154" viewBox="0 0 69 154" fill="none" xmlns="http://www.w3.org/2000/svg">
<path d="M39.1614 96.1618C39.0614 95.6618 38.6614 95.0618 38.0614 94.9618C37.7614 94.8618 37.4614 94.8618 37.1614 94.7618C36.3614 94.3618 35.2614 94.3618 34.4614 94.3618C33.5614 94.3618 32.6614 94.4618 31.7614 94.5618C30.7614 94.6618 29.8614 94.7618 28.8614 94.8618C27.6614 95.0618 26.2614 95.2618 25.1614 95.9618C24.0614 96.7618 23.3614 97.8618 23.5614 99.3618C23.7614 100.562 24.6614 101.962 25.9614 102.162C26.6614 102.262 27.2614 102.362 27.9614 102.262C28.6614 102.162 29.2614 102.062 29.9614 101.862C30.8614 101.562 31.7614 101.162 32.6614 100.862C33.6614 100.462 34.6614 100.062 35.6614 99.6618C36.4614 99.3618 37.3614 98.8618 37.8614 98.1618C38.0614 98.0618 38.1614 97.9618 38.3614 97.7618C38.9614 97.2618 39.2614 96.7618 39.1614 96.1618Z" fill="#18A7E0"/>
<path d="M37.0614 88.6621C37.0614 88.5621 36.9614 88.5621 36.9614 88.4621C36.8614 88.2621 36.7614 87.9621 36.5614 87.7621C36.3614 87.4621 36.1614 87.2621 35.9614 86.9621C35.1614 85.8621 34.1614 85.1621 32.7614 85.1621C31.5614 85.1621 30.5614 85.6621 29.8614 86.6621C28.3614 88.6621 29.1614 91.8621 31.7614 92.4621C32.4614 92.6621 33.1614 92.8621 33.8614 92.8621C34.0614 92.9621 34.2614 92.9621 34.3614 93.0621C35.4614 93.4621 36.8614 92.8621 37.3614 91.8621C38.0614 90.7621 37.8614 89.5621 37.0614 88.6621Z" fill="#18A7E0"/>
<path d="M38.3614 97.0619C37.9614 95.1619 36.7614 93.4618 35.1614 92.4618C37.1614 91.6618 38.5614 89.1618 37.5614 87.1618C36.5614 85.2618 33.4614 84.1618 31.7614 85.6618C29.4614 85.7618 27.3614 88.2619 27.9614 90.5619C28.0614 90.7619 28.2614 90.9618 28.4614 90.9618C29.1614 91.0618 29.7614 91.0618 30.4614 91.1618C27.2614 94.1618 24.8614 97.9618 23.5614 102.162C23.4614 102.462 23.7614 102.862 24.1614 102.762C28.7614 101.062 33.4614 99.3618 38.1614 97.7618C38.2614 97.5618 38.4614 97.2619 38.3614 97.0619ZM31.9614 91.0619C32.3614 90.7619 31.9614 90.2618 31.6614 90.2618C30.7614 90.1618 29.8614 90.0618 28.9614 89.9618C28.8614 88.9618 29.3614 88.0619 30.1614 87.3619C31.0614 86.6619 32.1614 86.4618 33.2614 86.9618C33.7614 87.1618 33.9614 86.4618 33.5614 86.2618C33.4614 86.1618 33.3614 86.1619 33.2614 86.0619C34.5614 85.8619 36.0614 86.1618 36.7614 87.4618C37.8614 89.4618 35.7614 91.9618 33.6614 91.7618C33.0613 91.6618 33.0614 92.5618 33.5614 92.6618C35.4614 93.3618 36.8614 94.9619 37.4614 96.8619C33.2614 98.3619 29.0614 99.9618 24.7614 101.462C26.1614 97.4618 28.6614 93.8619 31.9614 91.0619Z" fill="#860A0C"/>
<path d="M35.3614 131.762C36.5614 129.862 38.4614 128.662 39.8614 126.962C41.1614 125.462 42.4614 123.262 41.8614 121.162C41.4614 119.262 39.7614 118.262 38.1614 117.462C36.4614 116.662 34.6614 115.962 33.3614 114.562C30.5614 111.462 30.2614 106.262 32.8614 102.962C32.9614 102.762 32.7614 102.462 32.5614 102.662C30.3614 105.262 29.9614 109.062 31.1614 112.162C31.7614 113.762 32.7614 115.162 34.0614 116.162C35.5614 117.362 37.3614 117.862 38.9614 118.762C39.8614 119.262 40.5614 119.962 40.9614 120.962C41.3614 122.062 41.0614 123.262 40.4614 124.362C39.3614 126.362 37.4614 127.662 35.8614 129.362C34.3614 130.862 33.2614 132.662 33.4614 134.862C33.6614 137.162 34.8614 139.162 36.2614 140.862C37.7614 142.862 39.7614 144.862 40.1614 147.362C40.4614 149.362 39.7614 151.462 37.8614 152.562C37.3614 152.862 37.7614 153.562 38.2614 153.462C39.9614 153.062 41.0614 151.462 41.3614 149.762C41.6614 147.762 41.0614 145.862 39.9614 144.162C37.7614 140.662 32.4614 136.462 35.3614 131.762Z" fill="#860A0C"/>
<path d="M10.5614 79.1622C4.5614 72.1622 1.86139 62.8622 0.86139 53.7622C-0.73861 39.5622 1.66138 24.3622 10.6614 13.2622C19.6614 2.16218 36.2614 -3.23781 48.8614 3.46219C59.2614 8.86219 64.6614 20.7622 66.6614 32.2622C68.5614 43.5622 67.7614 55.5622 62.7614 65.7622C53.6614 84.5622 26.5614 97.8622 10.5614 79.1622Z" fill="#18A7E0"/>
<path d="M54.0616 45.4621C49.7616 63.9621 35.6616 76.5621 22.6616 73.4621C9.66157 70.4621 2.56159 52.9621 6.86159 34.4621C11.1616 15.9621 25.2616 3.36214 38.2616 6.46214C51.3616 9.46214 58.3616 26.9621 54.0616 45.4621Z" fill="#6DCFF6"/>
<path d="M25.4616 19.162C24.9616 17.262 23.8616 15.462 21.9616 14.862C20.5616 14.462 18.9616 14.562 17.6616 14.862C15.2616 15.462 13.3616 17.162 12.5616 19.362C11.3616 20.562 10.5616 22.162 10.4616 23.862C10.3616 28.662 15.6616 31.362 19.8616 30.362C24.6616 29.062 26.6616 23.562 25.4616 19.162ZM17.2616 23.662C17.2616 23.662 17.3616 23.662 17.7616 23.662C17.4616 23.662 17.3616 23.662 17.2616 23.662Z" fill="#FDF5B3"/>
<path d="M61.2615 42.6622C59.9615 47.7622 57.8615 52.4622 55.2615 57.0622C54.5615 58.2622 53.8615 59.3622 53.1615 60.4622C52.8615 60.9622 52.4615 61.4622 52.0615 61.9622C51.8615 62.2622 51.6615 62.4622 51.4615 62.7622L51.3615 62.8622C51.2615 63.0622 51.1615 63.1622 50.9615 63.3622C49.3615 65.3622 47.5615 67.3622 45.6615 69.2622C44.6615 70.2622 43.4615 71.1622 42.4615 72.2622C41.3615 73.3622 40.0615 74.3622 39.1615 75.5622C38.3615 76.6622 39.6615 77.9622 40.7615 77.6622C42.1615 77.3622 43.3615 76.4622 44.6615 75.7622C45.8615 74.9622 47.0615 74.0622 48.1615 73.0622C50.3615 71.1622 52.2615 69.0622 53.9615 66.7622C57.3615 62.3622 60.0615 57.3622 61.6615 52.0622C62.5615 49.0622 63.1615 46.0622 63.5615 42.9622C63.6615 41.5622 61.5615 41.3622 61.2615 42.6622Z" fill="#FDF5B3"/>
<path d="M29.5615 88.562C23.6615 88.562 16.4615 86.662 10.2615 79.362C4.96149 73.162 1.66147 64.562 0.461472 53.662C-1.33853 37.462 2.16147 22.962 10.3615 12.862C18.8615 2.46195 35.6615 -4.13805 49.0615 2.96195C58.1615 7.76195 64.6615 18.362 67.0615 32.062C68.5615 40.762 69.0615 53.662 63.0615 65.862C57.3615 77.562 44.9615 86.762 33.0615 88.262C32.0615 88.462 30.8615 88.562 29.5615 88.562ZM10.8615 78.862C18.1615 87.462 26.9615 88.362 33.0615 87.562C44.7615 86.062 56.8615 77.062 62.4615 65.562C68.3615 53.562 67.7615 40.862 66.3615 32.262C64.0615 18.762 57.6615 8.36195 48.7615 3.76195C35.6615 -3.13805 19.2615 3.36195 11.0615 13.462C3.06148 23.3619 -0.438534 37.562 1.36147 53.662C2.46147 64.362 5.66147 72.862 10.8615 78.862Z" fill="#860A0C"/>
</svg>
