<svg width="62" height="105" viewBox="0 0 62 105" fill="none" xmlns="http://www.w3.org/2000/svg">
<path d="M61.077 35.9973C63.277 22.8973 55.877 8.79728 43.877 3.09728C31.877 -2.50272 16.277 0.797278 7.57702 10.8973C-1.02298 20.9973 -1.92295 36.8973 5.47705 47.8973C21.077 71.0973 56.377 63.1973 61.077 35.9973Z" fill="#E32F26"/>
<path d="M48.1771 63.7974C47.8771 62.5974 46.677 62.1974 45.577 62.2974C44.977 62.3974 44.3771 62.5974 43.7771 62.7974C42.9771 63.1974 42.477 63.4974 42.077 64.3974C41.877 64.7974 41.8771 65.2974 42.2771 65.5974C42.9771 66.2974 43.677 66.4974 44.577 66.5974C45.277 66.6974 45.9771 66.5974 46.7771 66.3974C47.7771 66.0974 48.4771 64.7974 48.1771 63.7974Z" fill="#E32F26"/>
<path d="M50.677 26.9975C50.677 39.1975 40.777 49.0975 28.577 49.0975C16.377 49.0975 6.47705 39.1975 6.47705 26.9975C6.47705 14.7975 16.377 4.89746 28.577 4.89746C40.777 4.89746 50.677 14.7975 50.677 26.9975Z" fill="#F26B72"/>
<path d="M15.077 13.0974C13.577 13.5974 12.1771 14.4974 11.4771 15.9974C10.6771 17.4974 10.577 18.9974 11.077 20.4974C10.877 21.4974 10.977 22.5974 11.077 23.5974C11.277 24.7974 12.3771 25.5974 13.3771 25.8974C15.5771 26.5974 17.7771 25.7974 19.4771 24.3974C21.0771 22.9974 21.8771 20.9974 21.9771 18.8974C22.3771 15.2974 18.777 11.9974 15.077 13.0974ZM20.177 19.0974V19.2974C20.177 19.0974 20.177 18.8974 20.177 18.6974C20.077 18.7974 20.077 18.8974 20.177 19.0974Z" fill="#FDF5B3"/>
<path d="M14.077 27.8972C13.977 26.0972 12.577 24.5972 10.777 24.5972C9.07703 24.5972 7.37705 26.0972 7.47705 27.8972C7.57705 29.6972 8.97703 31.1972 10.777 31.1972C12.477 31.1972 14.177 29.6972 14.077 27.8972Z" fill="#FDF5B3"/>
<path d="M58.4771 25.0976C58.2771 23.9976 57.977 22.8976 57.177 22.0976C56.777 21.6976 55.877 21.6976 55.677 22.2976C55.077 23.3976 55.177 24.6976 55.077 25.8976C55.077 26.9976 54.9771 28.0976 54.8771 29.1976C54.8771 29.4976 54.7771 29.7976 54.7771 30.0976C54.7771 30.4976 54.777 30.3976 54.677 30.6976C54.577 31.1976 54.4771 31.6976 54.3771 32.1976C54.1771 33.2976 53.8771 34.3976 53.4771 35.4976C52.7771 37.4976 51.877 39.3976 50.677 41.2976C49.477 43.1976 47.8771 44.6976 46.8771 46.8976C46.1771 48.2976 47.5771 49.4976 48.8771 48.8976C50.7771 48.0976 52.0771 46.3976 53.2771 44.6976C54.3771 43.1976 55.2771 41.5976 55.9771 39.8976C57.5771 36.2976 58.477 32.4976 58.677 28.5976C58.777 27.2976 58.6771 26.1976 58.4771 25.0976Z" fill="#FDF5B3"/>
<path d="M48.177 62.8975C46.577 62.9975 44.977 62.3975 43.577 61.7975C42.877 61.4975 42.277 61.0975 41.677 60.7975C40.977 60.3975 40.477 60.0975 39.777 59.8975C39.377 59.7975 39.277 60.1975 39.477 60.4975C39.877 60.9975 40.377 61.3975 40.877 61.6975C40.277 63.9975 39.777 66.3975 39.277 68.6975C39.177 69.0975 39.577 69.3975 39.877 69.1975C41.377 68.2975 42.777 67.2975 44.277 66.3975C44.977 65.8975 45.677 65.4975 46.377 64.9975C46.777 64.7975 47.077 64.4975 47.477 64.2975C47.877 64.0975 48.077 63.7975 48.377 63.4975C48.677 63.1975 48.477 62.7975 48.177 62.8975ZM45.877 64.0975L43.777 65.4975C42.677 66.1975 41.477 66.9975 40.377 67.6975C40.777 65.7975 41.177 63.7975 41.577 61.7975C42.177 62.0975 42.777 62.2975 43.477 62.4975C44.777 62.8975 45.977 62.9975 47.277 63.1975C47.177 63.2975 47.077 63.2975 46.977 63.3975C46.577 63.6975 46.177 63.8975 45.877 64.0975Z" fill="#860A0C"/>
<path d="M54.377 85.4975C52.177 83.2975 48.677 83.7975 45.977 82.5975C44.577 81.8975 43.777 80.4975 44.177 78.8975C44.677 77.0975 45.977 75.6975 46.777 74.0975C47.777 72.2975 48.077 70.3975 47.077 68.4975C46.177 66.6975 44.277 65.3975 42.277 65.3975C41.677 65.3975 41.677 66.2975 42.277 66.2975C44.177 66.3975 45.977 67.7975 46.477 69.5975C47.077 71.4975 46.177 73.0975 45.177 74.6975C44.277 76.0975 43.177 77.4975 42.877 79.1975C42.677 80.5975 43.177 81.9975 44.277 82.8975C46.577 84.7975 49.977 84.0975 52.477 85.4975C54.177 86.3975 54.877 88.0975 54.477 89.8975C53.977 92.0975 52.477 93.5975 50.677 94.7975C48.777 96.0975 46.577 97.0975 44.977 98.6975C43.477 100.197 42.277 102.197 42.577 104.397C42.677 104.897 43.377 104.797 43.377 104.297C43.277 99.2975 48.577 97.3975 51.877 94.8975C53.377 93.6975 54.677 92.1975 55.177 90.2975C55.977 88.5975 55.677 86.7975 54.377 85.4975Z" fill="#860A0C"/>
<path d="M30.577 61.9974C20.477 61.9974 11.077 56.9974 5.07702 48.1974C-2.42298 36.9974 -1.52297 20.8974 7.17703 10.6974C15.877 0.497395 31.677 -3.00261 43.877 2.79739C56.077 8.49739 63.577 22.7974 61.277 36.0974L60.877 35.9974L61.277 36.0974C59.077 48.8974 49.877 58.5974 37.177 61.2974C35.077 61.7974 32.877 61.9974 30.577 61.9974ZM31.277 0.797393C22.477 0.797393 13.577 4.49739 7.87704 11.1974C-0.622961 21.1974 -1.52297 36.8974 5.77703 47.7974C12.877 58.2974 24.877 63.1974 37.177 60.4974C49.477 57.7974 58.477 48.3974 60.577 35.8974C62.777 22.9974 55.477 8.99739 43.577 3.49739C39.777 1.69739 35.577 0.797393 31.277 0.797393Z" fill="#860A0C"/>
</svg>
