<svg width="144" height="12" viewBox="0 0 144 12" fill="none" xmlns="http://www.w3.org/2000/svg">
<g clip-path="url(#clip0)">
<circle cx="2" cy="6" r="2" fill="#B3B6BE"/>
<circle cx="10" cy="6" r="2" fill="#B3B6BE"/>
<circle cx="18" cy="6" r="2" fill="#B3B6BE"/>
<circle cx="26" cy="6" r="2" fill="#B3B6BE"/>
<circle cx="34" cy="6" r="2" fill="#B3B6BE"/>
<circle cx="42" cy="6" r="2" fill="#B3B6BE"/>
<circle cx="50" cy="6" r="2" fill="#B3B6BE"/>
<circle cx="58" cy="6" r="2" fill="#B3B6BE"/>
<circle cx="66" cy="6" r="2" fill="#B3B6BE"/>
<circle cx="74" cy="6" r="2" fill="#B3B6BE"/>
<circle cx="82" cy="6" r="2" fill="#B3B6BE"/>
<circle cx="90" cy="6" r="2" fill="#B3B6BE"/>
<circle cx="98" cy="6" r="2" fill="#B3B6BE"/>
<circle cx="106" cy="6" r="2" fill="#B3B6BE"/>
<circle cx="114" cy="6" r="2" fill="#B3B6BE"/>
<circle cx="122" cy="6" r="2" fill="#B3B6BE"/>
<circle cx="130" cy="6" r="2" fill="#B3B6BE"/>
<path d="M144 6L135 11.1962L135 0.803847L144 6Z" fill="#B3B6BE"/>
</g>
<defs>
<clipPath id="clip0">
<rect width="144" height="12" fill="white"/>
</clipPath>
</defs>
</svg>
