<svg width="15" height="15" viewBox="0 0 15 15" fill="none" xmlns="http://www.w3.org/2000/svg">
<path fill-rule="evenodd" clip-rule="evenodd" d="M12.253 14.3742C12.8388 14.96 13.7886 14.96 14.3744 14.3742C14.9602 13.7884 14.9602 12.8386 14.3744 12.2529L9.77829 7.65677L14.3744 3.06069C14.9602 2.4749 14.9602 1.52516 14.3744 0.939371C13.7886 0.353585 12.8388 0.353584 12.253 0.939371L7.65697 5.53545L3.06066 0.939146C2.47487 0.353358 1.52513 0.353359 0.93934 0.939146C0.353554 1.52493 0.353553 2.47468 0.93934 3.06047L5.53565 7.65677L0.939341 12.2531C0.353555 12.8389 0.353555 13.7886 0.939341 14.3744C1.52513 14.9602 2.47487 14.9602 3.06066 14.3744L7.65697 9.77809L12.253 14.3742Z" fill="#888E9D"/>
</svg>
