<svg width="143" height="141" viewBox="0 0 143 141" fill="none" xmlns="http://www.w3.org/2000/svg">
<ellipse cx="40.5167" cy="54.4" rx="40.5167" ry="40.8" fill="#67C6FF"/>
<g clip-path="url(#clip0)">
<path d="M23.8879 67.6999C11.0851 60.2692 5.22778 42.6576 7.63671 28.5595C11.108 8.08023 31.9115 -3.79672 47.9922 11.5387C59.556 22.55 67.1901 44.497 57.669 59.0265C50.5813 69.8752 35.1968 74.3069 23.8879 67.6999Z" fill="#FAB74B"/>
<path d="M46.3632 69.7067C46.0836 68.3758 44.8697 67.2672 43.3715 67.4943C42.8984 67.5659 42.516 67.7047 42.1335 67.8434C41.9758 67.8673 41.751 67.9822 41.5933 68.0061C40.9743 68.1806 40.446 68.4223 40.0437 68.9679C39.7085 69.4226 39.4993 70.1814 39.5819 70.7343C39.6764 71.3663 40.0074 71.9624 40.5395 72.2857C41.0834 72.6879 41.659 72.7623 42.3016 72.7457C42.4593 72.7218 42.7077 72.7649 42.8654 72.741C43.2832 72.8393 43.7564 72.7676 44.1506 72.7078C45.5818 72.5718 46.6427 71.0377 46.3632 69.7067Z" fill="#FAB74B"/>
<path d="M47.8513 76.4285C46.5193 74.53 43.9569 74.1105 41.9894 74.9741C41.1574 75.3425 40.5776 76.319 40.7193 77.2669C40.9398 78.2029 41.5073 78.7631 42.3549 79.0386C42.3549 79.0386 42.3548 79.0386 42.4455 79.1057C42.4455 79.1057 42.5362 79.1727 42.615 79.1608C42.7057 79.2278 42.7963 79.2949 42.887 79.3619C42.887 79.3619 42.887 79.3619 42.9776 79.4289C43.0683 79.496 43.1708 79.642 43.2614 79.7091C43.2614 79.7091 43.4427 79.8432 43.4545 79.9222C44.4319 81.0666 46.2493 81.3567 47.4717 80.3636C48.6035 79.3035 48.7617 77.6639 47.8513 76.4285Z" fill="#FAB74B"/>
<path d="M37.5751 57.3054C48.8542 55.5962 56.428 43.7068 54.4917 30.7495C52.5554 17.7923 41.8423 8.67394 30.5632 10.3831C19.2841 12.0922 11.7103 23.9817 13.6466 36.9389C15.5828 49.8962 26.296 59.0145 37.5751 57.3054Z" fill="#FFE672"/>
<path d="M48.6796 19.9168C47.7853 17.7096 45.5859 15.9425 43.1377 15.748C40.2835 15.5343 37.3419 17.4341 36.4698 20.2321C35.9727 21.7615 35.9722 23.3772 36.6696 24.8064C36.8863 25.1775 37.103 25.5486 37.3198 25.9196C37.4931 26.5396 37.6781 27.2386 37.9303 27.8467C38.5252 29.1298 39.7708 29.9105 41.1467 29.9443C43.7408 30.0359 46.1696 29.0216 47.8023 26.997C49.4233 24.8934 49.6645 22.191 48.6796 19.9168Z" fill="#FDF5B3"/>
<path d="M33.4814 62.288C32.894 62.1346 32.3737 61.8903 31.7981 61.816C31.3014 61.7297 30.8047 61.6434 30.3079 61.5571C29.8112 61.4708 29.3934 61.3726 28.8966 61.2863C28.7271 61.2312 28.6483 61.2431 28.4788 61.188C28.2304 61.1449 27.9703 61.0227 27.7219 60.9796C26.7955 60.7161 25.8573 60.3735 24.9073 59.952C24.4776 59.7748 24.0362 59.5185 23.6065 59.3413C23.4252 59.2072 23.1768 59.1641 22.9955 59.03C22.9955 59.03 22.9167 59.0419 22.9048 58.9629C22.7353 58.9078 22.6329 58.7618 22.4634 58.7067C21.5804 58.1942 20.7645 57.5908 19.9486 56.9874C18.2143 55.6346 16.7837 54.1549 15.3058 52.3593C13.8397 50.6427 12.5984 48.8112 11.57 46.7859C11.4557 46.5609 11.1521 46.6877 11.1875 46.9247C11.7225 51.0443 13.4048 54.7477 16.1991 57.7979C19.0723 60.8362 22.5843 63.293 26.5066 64.7182C27.5354 65.1278 28.6195 65.3674 29.7154 65.686C30.8783 65.9137 31.9388 65.9954 33.1216 65.8161C33.989 65.6847 34.8762 65.1463 34.9829 64.2416C35.0778 63.2578 34.3289 62.5635 33.4814 62.288Z" fill="#FDF5B3"/>
<path d="M39.5823 70.7328C34.1416 71.5572 28.5318 70.7109 23.6755 67.8923C10.0804 60.0162 5.08672 41.7082 7.31009 28.5269C9.20956 17.495 16.3203 8.41997 25.4558 5.33921C33.365 2.68661 41.5094 4.84533 48.2846 11.3314C60.5066 22.9701 67.3522 45.0365 58.0204 59.2143C53.7331 65.5995 46.8367 69.6335 39.5823 70.7328ZM29.1302 5.10554C27.9474 5.28477 26.7764 5.543 25.6291 5.95921C16.7184 8.92513 9.74169 17.8182 7.96451 28.5893C5.71753 41.6126 10.664 59.6046 24.0108 67.4376C34.957 73.7763 50.1759 69.8545 57.4094 58.9029C66.5401 44.998 59.8324 23.3146 47.7916 11.8101C42.1516 6.44445 35.6749 4.11381 29.1302 5.10554Z" fill="#860A0C"/>
<path d="M47.4395 68.8166C47.3923 68.5006 46.9745 68.4023 46.7851 68.7542C46.4853 69.4459 46.3432 70.1137 45.862 70.6713C45.3809 71.2289 44.8091 71.7194 44.1231 71.9849C43.5159 72.2385 42.818 72.425 42.0847 72.3746C41.7575 72.3434 41.3514 72.3241 41.0795 72.123C40.7405 72.0128 40.4133 71.9816 40.1413 71.7805C39.7905 71.5913 39.6247 72.1011 39.8178 72.3142C40.1805 72.5824 40.3854 72.8744 40.8151 73.0517C41.2329 73.1499 41.6508 73.2482 42.0569 73.2674C42.9478 73.294 43.8034 73.0835 44.5565 72.7271C45.3096 72.3706 46.0391 71.8562 46.5084 71.2196C47.1473 70.6381 47.6482 69.6735 47.4395 68.8166Z" fill="#860A0C"/>
<path d="M49.1681 76.0674C48.1435 74.607 46.2435 73.7639 44.5602 73.292C43.9729 73.1386 43.606 73.9213 44.2052 74.1536C45.5849 74.7524 47.1104 75.2482 48.1549 76.3017C49.1086 77.2881 49.4 78.6981 48.619 79.9474C48.2838 80.4021 47.779 80.8017 47.2153 80.8063C46.4031 80.7678 45.7449 80.1405 45.0433 79.7622C43.9002 79.1276 42.5913 79.0028 41.4204 79.261C40.7225 79.4475 40.1153 79.7011 39.5988 80.0217C40.6323 77.7647 41.6659 75.5078 42.6088 73.1838C42.8416 72.583 41.994 72.3075 41.7494 72.8293C40.4161 75.778 39.2522 78.7817 37.9977 81.7184C37.8201 82.1492 38.4311 82.4606 38.6993 82.0968C39.4684 80.7685 40.8051 80.0005 42.3151 79.8524C43.1154 79.8119 43.8605 79.9414 44.5622 80.3198C45.2638 80.6981 45.9102 81.2464 46.6789 81.5339C47.9443 81.9076 49.0326 81.0964 49.5888 79.962C50.1214 78.6695 49.9878 77.2357 49.1681 76.0674Z" fill="#860A0C"/>
<path d="M62.1079 115.71C61.5569 112.562 59.5114 110.206 56.6496 108.862C51.1862 106.297 43.6717 107.275 40.3618 101.314C38.7068 98.333 38.4121 94.7424 39.0557 91.4944C39.8532 87.6576 41.9278 84.2735 43.8448 80.9132C44.3694 80.1067 44.8033 79.2331 45.3279 78.4266C45.462 78.2447 45.19 78.0436 45.0559 78.2255C41.0883 83.5121 37.1835 89.7585 37.974 96.6668C38.3319 99.6016 39.4901 102.496 41.7249 104.5C43.7784 106.37 46.5575 107.16 49.2224 107.726C51.8992 108.371 54.6982 108.754 57.1657 110.158C59.8146 111.695 61.513 114.426 61.4214 117.591C61.4091 119.128 60.9119 120.657 60.0521 121.918C59.7169 122.373 59.2239 122.852 58.798 123.239C58.6564 122.291 58.2782 121.379 57.6752 120.582C56.9698 119.639 55.9608 118.822 54.6439 119.183C53.4847 119.521 52.9049 120.497 52.9125 121.627C52.9201 122.757 53.5032 123.961 54.4886 124.619C55.7342 125.4 57.2994 125.082 58.4902 124.417C58.5176 125.14 58.3873 125.887 58.2452 126.554C57.6569 129.632 55.7007 132.191 53.2204 133.94C52.6368 134.351 51.9744 134.775 51.3119 135.199C50.7954 135.519 51.2959 136.17 51.836 136.008C54.8956 134.898 56.9505 131.921 57.9567 128.941C58.4539 127.411 58.8604 125.815 58.8608 124.199C61.5659 122.335 62.6471 118.778 62.1079 115.71ZM56.0737 123.894C54.8555 123.837 53.9923 122.917 53.7364 121.744C53.5712 120.638 54.1274 119.504 55.3337 119.483C56.7767 119.426 57.6318 120.831 58.1361 122.047C58.2739 122.43 58.4236 122.892 58.4038 123.299C57.7413 123.723 56.9764 124 56.0737 123.894Z" fill="#860A0C"/>
</g>
<defs>
<clipPath id="clip0">
<rect width="54.4705" height="133.305" fill="white" transform="matrix(0.988713 -0.149823 0.147795 0.989018 2.3833 8.51381)"/>
</clipPath>
</defs>
</svg>
