<svg width="19" height="19" viewBox="0 0 19 19" fill="none" xmlns="http://www.w3.org/2000/svg">
<path fill-rule="evenodd" clip-rule="evenodd" d="M10.9701 10.9701C12.4689 9.47126 12.4689 7.04116 10.9701 5.54232C9.47126 4.04348 7.04116 4.04348 5.54232 5.54232C4.04348 7.04116 4.04348 9.47126 5.54232 10.9701C7.04116 12.4689 9.47126 12.4689 10.9701 10.9701ZM12.3843 12.3843C14.6642 10.1044 14.6642 6.40799 12.3843 4.12811C10.1044 1.84822 6.408 1.84822 4.12811 4.12811C1.84822 6.40799 1.84822 10.1044 4.12811 12.3843C6.408 14.6642 10.1044 14.6642 12.3843 12.3843Z" fill="#06112E"/>
<rect x="11.0082" y="12.3843" width="1.94601" height="8.75703" transform="rotate(-45 11.0082 12.3843)" fill="#06112E"/>
</svg>
